<svg width="2972" height="1858" viewBox="0 0 2972 1858" fill="none" xmlns="http://www.w3.org/2000/svg">
<mask id="mask0_27_430" style="mask-type:alpha" maskUnits="userSpaceOnUse" x="0" y="0" width="2972" height="1858">
<rect width="2972" height="1857.5" fill="#C4C4C4"/>
</mask>
<g mask="url(#mask0_27_430)">
<rect x="-136.216" y="-0.98584" width="3244.43" height="1962.63" fill="#2F307D"/>
<g filter="url(#filter0_f_27_430)">
<path d="M-119.354 817.657L1536.11 -27.166L2288.59 -27.166L3209.49 198.12L-19.0231 1457.31L-119.354 817.657Z" fill="url(#paint0_linear_27_430)"/>
</g>
<g filter="url(#filter1_f_27_430)">
<path d="M-208.675 791.777L1651.36 -1.28648L2288.59 -27.166L3209.49 198.12L-19.0224 1457.31L-208.675 791.777Z" fill="url(#paint1_linear_27_430)"/>
</g>
<g filter="url(#filter2_f_27_430)">
<ellipse cx="680.768" cy="222.015" rx="680.768" ry="222.015" transform="matrix(0.914846 -0.403803 0.330497 0.943807 1048.74 705.92)" fill="#E73800"/>
</g>
<g filter="url(#filter3_f_27_430)">
<path d="M1389.95 60.8044C1028.88 113.111 578.518 213.366 135.918 60.8044C112.623 49.1806 94.7629 61.6761 209.684 204.648C353.335 383.363 823.114 309.262 1389.95 60.8044Z" fill="#4463B1"/>
</g>
<g opacity="0.4" filter="url(#filter4_f_27_430)">
<path d="M1258.46 85.5328C972.085 127.019 614.888 206.533 263.85 85.5328C245.374 76.3137 231.209 86.2242 322.356 199.619C436.29 341.362 808.883 282.591 1258.46 85.5328Z" fill="#4463B1"/>
</g>
<path d="M1410.11 676.603C2101.68 338.673 2388.34 322.582 3051.24 451.316L3269.82 885.797L73.5557 1871.42C15.0294 1860.69 184.635 1589.82 646.876 1179.47C734.008 1102.12 718.545 1014.53 1410.11 676.603Z" fill="url(#paint2_linear_27_430)"/>
<g opacity="0.7" filter="url(#filter5_f_27_430)">
<path d="M1855.39 529.568C2563.63 238.401 2388.33 322.582 3051.23 451.317L3269.81 885.797L98.6373 1863.38C40.111 1852.65 -26.7762 1625.22 173.886 1300.16C424.713 893.843 1030.94 868.51 1855.39 529.568Z" fill="#4463B1"/>
</g>
<g filter="url(#filter6_f_27_430)">
<path d="M1664.52 712.809C2474.24 509.947 2433.4 322.583 3166.42 451.317L3269.81 885.797L-236.787 1863.38C-301.504 1852.65 -375.466 1625.22 -153.579 1300.16C123.779 893.843 1054.33 865.681 1664.52 712.809Z" fill="#4463B1"/>
</g>
<g filter="url(#filter7_f_27_430)">
<ellipse cx="680.768" cy="222.015" rx="680.768" ry="222.015" transform="matrix(0.914846 -0.403803 0.330497 0.943807 -138.816 1038.23)" fill="#4463B1"/>
</g>
<g opacity="0.4" filter="url(#filter8_f_27_430)">
<ellipse cx="680.768" cy="322.309" rx="680.768" ry="322.309" transform="matrix(0.914846 -0.403803 0.330497 0.943807 903.656 1156.24)" fill="#4463B1"/>
</g>
<g filter="url(#filter9_f_27_430)">
<ellipse cx="680.768" cy="222.015" rx="680.768" ry="222.015" transform="matrix(0.914846 -0.403803 0.330497 0.943807 2024.22 891.046)" fill="#3A78F0"/>
</g>
<g filter="url(#filter10_f_27_430)">
<ellipse cx="611.731" cy="341.993" rx="611.731" ry="341.993" transform="matrix(0.914846 -0.403803 0.330497 0.943807 -764.9 1049.24)" fill="#2A4EAB"/>
</g>
<g filter="url(#filter11_f_27_430)">
<path d="M-889.536 1647.2V2934.85H3684.04V703.429L-889.536 1647.2Z" fill="white"/>
</g>
<g filter="url(#filter12_f_27_430)">
<path d="M2412.42 401.633L3408.78 -105.259L3161.54 505.027L2412.42 401.633Z" fill="#2A4EAB"/>
</g>
<g opacity="0.4" filter="url(#filter13_f_27_430)">
<path d="M626.607 1656.68L2200.01 929.371L2945.36 825.133L3875.23 830.361L776.241 2019.82L626.607 1656.68Z" fill="url(#paint3_linear_27_430)"/>
</g>
<g opacity="0.4" filter="url(#filter14_f_27_430)">
<path d="M1832.73 1282.32L3488.3 779.896L4240.83 779.896L5161.79 913.876L1933.07 1662.73L1832.73 1282.32Z" fill="url(#paint4_linear_27_430)"/>
</g>
<g opacity="0.4" filter="url(#filter15_f_27_430)">
<path d="M1733.2 1393.75L3522.69 701.526L4153.36 609.501L5083.59 631.596L1969.12 1763.83L1733.2 1393.75Z" fill="url(#paint5_linear_27_430)"/>
</g>
</g>
<defs>
<filter id="filter0_f_27_430" x="-126.354" y="-34.166" width="3342.84" height="1498.47" filterUnits="userSpaceOnUse" color-interpolation-filters="sRGB">
<feFlood flood-opacity="0" result="BackgroundImageFix"/>
<feBlend mode="normal" in="SourceGraphic" in2="BackgroundImageFix" result="shape"/>
<feGaussianBlur stdDeviation="3.5" result="effect1_foregroundBlur_27_430"/>
</filter>
<filter id="filter1_f_27_430" x="-232.675" y="-51.166" width="3466.16" height="1532.47" filterUnits="userSpaceOnUse" color-interpolation-filters="sRGB">
<feFlood flood-opacity="0" result="BackgroundImageFix"/>
<feBlend mode="normal" in="SourceGraphic" in2="BackgroundImageFix" result="shape"/>
<feGaussianBlur stdDeviation="12" result="effect1_foregroundBlur_27_430"/>
</filter>
<filter id="filter2_f_27_430" x="953.751" y="130.894" width="1582.33" height="1019.34" filterUnits="userSpaceOnUse" color-interpolation-filters="sRGB">
<feFlood flood-opacity="0" result="BackgroundImageFix"/>
<feBlend mode="normal" in="SourceGraphic" in2="BackgroundImageFix" result="shape"/>
<feGaussianBlur stdDeviation="82" result="effect1_foregroundBlur_27_430"/>
</filter>
<filter id="filter3_f_27_430" x="50.6953" y="-10.5122" width="1407.26" height="381.695" filterUnits="userSpaceOnUse" color-interpolation-filters="sRGB">
<feFlood flood-opacity="0" result="BackgroundImageFix"/>
<feBlend mode="normal" in="SourceGraphic" in2="BackgroundImageFix" result="shape"/>
<feGaussianBlur stdDeviation="34" result="effect1_foregroundBlur_27_430"/>
</filter>
<filter id="filter4_f_27_430" x="214.19" y="46.9023" width="1080.27" height="266.867" filterUnits="userSpaceOnUse" color-interpolation-filters="sRGB">
<feFlood flood-opacity="0" result="BackgroundImageFix"/>
<feBlend mode="normal" in="SourceGraphic" in2="BackgroundImageFix" result="shape"/>
<feGaussianBlur stdDeviation="18" result="effect1_foregroundBlur_27_430"/>
</filter>
<filter id="filter5_f_27_430" x="28.0405" y="321.972" width="3252.77" height="1552.41" filterUnits="userSpaceOnUse" color-interpolation-filters="sRGB">
<feFlood flood-opacity="0" result="BackgroundImageFix"/>
<feBlend mode="normal" in="SourceGraphic" in2="BackgroundImageFix" result="shape"/>
<feGaussianBlur stdDeviation="5.5" result="effect1_foregroundBlur_27_430"/>
</filter>
<filter id="filter6_f_27_430" x="-348.688" y="362.996" width="3664.5" height="1546.38" filterUnits="userSpaceOnUse" color-interpolation-filters="sRGB">
<feFlood flood-opacity="0" result="BackgroundImageFix"/>
<feBlend mode="normal" in="SourceGraphic" in2="BackgroundImageFix" result="shape"/>
<feGaussianBlur stdDeviation="23" result="effect1_foregroundBlur_27_430"/>
</filter>
<filter id="filter7_f_27_430" x="-233.809" y="463.203" width="1582.33" height="1019.34" filterUnits="userSpaceOnUse" color-interpolation-filters="sRGB">
<feFlood flood-opacity="0" result="BackgroundImageFix"/>
<feBlend mode="normal" in="SourceGraphic" in2="BackgroundImageFix" result="shape"/>
<feGaussianBlur stdDeviation="82" result="effect1_foregroundBlur_27_430"/>
</filter>
<filter id="filter8_f_27_430" x="837.032" y="611.537" width="1591.89" height="1148.02" filterUnits="userSpaceOnUse" color-interpolation-filters="sRGB">
<feFlood flood-opacity="0" result="BackgroundImageFix"/>
<feBlend mode="normal" in="SourceGraphic" in2="BackgroundImageFix" result="shape"/>
<feGaussianBlur stdDeviation="82" result="effect1_foregroundBlur_27_430"/>
</filter>
<filter id="filter9_f_27_430" x="1929.23" y="316.02" width="1582.33" height="1019.34" filterUnits="userSpaceOnUse" color-interpolation-filters="sRGB">
<feFlood flood-opacity="0" result="BackgroundImageFix"/>
<feBlend mode="normal" in="SourceGraphic" in2="BackgroundImageFix" result="shape"/>
<feGaussianBlur stdDeviation="82" result="effect1_foregroundBlur_27_430"/>
</filter>
<filter id="filter10_f_27_430" x="-827.284" y="554.526" width="1470.1" height="1140.94" filterUnits="userSpaceOnUse" color-interpolation-filters="sRGB">
<feFlood flood-opacity="0" result="BackgroundImageFix"/>
<feBlend mode="normal" in="SourceGraphic" in2="BackgroundImageFix" result="shape"/>
<feGaussianBlur stdDeviation="82" result="effect1_foregroundBlur_27_430"/>
</filter>
<filter id="filter11_f_27_430" x="-1045.54" y="547.429" width="4885.58" height="2543.42" filterUnits="userSpaceOnUse" color-interpolation-filters="sRGB">
<feFlood flood-opacity="0" result="BackgroundImageFix"/>
<feBlend mode="normal" in="SourceGraphic" in2="BackgroundImageFix" result="shape"/>
<feGaussianBlur stdDeviation="78" result="effect1_foregroundBlur_27_430"/>
</filter>
<filter id="filter12_f_27_430" x="2344.42" y="-173.259" width="1132.36" height="746.286" filterUnits="userSpaceOnUse" color-interpolation-filters="sRGB">
<feFlood flood-opacity="0" result="BackgroundImageFix"/>
<feBlend mode="normal" in="SourceGraphic" in2="BackgroundImageFix" result="shape"/>
<feGaussianBlur stdDeviation="34" result="effect1_foregroundBlur_27_430"/>
</filter>
<filter id="filter13_f_27_430" x="619.607" y="818.133" width="3262.62" height="1208.69" filterUnits="userSpaceOnUse" color-interpolation-filters="sRGB">
<feFlood flood-opacity="0" result="BackgroundImageFix"/>
<feBlend mode="normal" in="SourceGraphic" in2="BackgroundImageFix" result="shape"/>
<feGaussianBlur stdDeviation="3.5" result="effect1_foregroundBlur_27_430"/>
</filter>
<filter id="filter14_f_27_430" x="1825.73" y="772.896" width="3343.05" height="896.836" filterUnits="userSpaceOnUse" color-interpolation-filters="sRGB">
<feFlood flood-opacity="0" result="BackgroundImageFix"/>
<feBlend mode="normal" in="SourceGraphic" in2="BackgroundImageFix" result="shape"/>
<feGaussianBlur stdDeviation="3.5" result="effect1_foregroundBlur_27_430"/>
</filter>
<filter id="filter15_f_27_430" x="1709.2" y="585.501" width="3398.39" height="1202.33" filterUnits="userSpaceOnUse" color-interpolation-filters="sRGB">
<feFlood flood-opacity="0" result="BackgroundImageFix"/>
<feBlend mode="normal" in="SourceGraphic" in2="BackgroundImageFix" result="shape"/>
<feGaussianBlur stdDeviation="12" result="effect1_foregroundBlur_27_430"/>
</filter>
<linearGradient id="paint0_linear_27_430" x1="1545.07" y1="-27.166" x2="168.608" y2="1136.92" gradientUnits="userSpaceOnUse">
<stop stop-color="#FF7D54"/>
<stop offset="1" stop-color="white" stop-opacity="0"/>
</linearGradient>
<linearGradient id="paint1_linear_27_430" x1="1034.45" y1="499.843" x2="61.3763" y2="1292.57" gradientUnits="userSpaceOnUse">
<stop offset="0.0104167" stop-color="#91B0ED"/>
<stop offset="0.458333" stop-color="#437DD5"/>
<stop offset="1" stop-color="#8A3AF0"/>
</linearGradient>
<linearGradient id="paint2_linear_27_430" x1="2402.67" y1="555.914" x2="857.047" y2="1107.9" gradientUnits="userSpaceOnUse">
<stop stop-color="#819CFF"/>
<stop offset="0.65537" stop-color="#E73800"/>
<stop offset="1" stop-color="#819CFF"/>
</linearGradient>
<linearGradient id="paint3_linear_27_430" x1="2208.88" y1="928.13" x2="1584.77" y2="2138.92" gradientUnits="userSpaceOnUse">
<stop stop-color="#3A4CF0"/>
<stop offset="1" stop-color="white" stop-opacity="0"/>
</linearGradient>
<linearGradient id="paint4_linear_27_430" x1="3497.26" y1="779.896" x2="2716.09" y2="1890.84" gradientUnits="userSpaceOnUse">
<stop stop-color="#D73AF0"/>
<stop offset="1" stop-color="white" stop-opacity="0"/>
</linearGradient>
<linearGradient id="paint5_linear_27_430" x1="2946.23" y1="1071.68" x2="2480.36" y2="1904.76" gradientUnits="userSpaceOnUse">
<stop offset="0.166667" stop-color="#FF9471"/>
<stop offset="0.541667" stop-color="#DBC0C6" stop-opacity="0.69"/>
<stop offset="0.791667" stop-color="#C2DEFF" stop-opacity="0.62"/>
<stop offset="1" stop-color="#9492FF" stop-opacity="0"/>
</linearGradient>
</defs>
</svg>
