<svg width="36" height="36" viewBox="0 0 36 36" fill="none" xmlns="http://www.w3.org/2000/svg">
<path d="M18 34.5C9.6645 32.6475 3 24.783 3 16.5V7.5L18 1.5L33 7.5V16.5C33 24.786 26.3355 32.6475 18 34.5ZM6 9V16.5C6.08572 19.9682 7.30554 23.3128 9.47277 26.0218C11.64 28.7308 14.6352 30.6551 18 31.5C21.3648 30.6551 24.36 28.7308 26.5272 26.0218C28.6945 23.3128 29.9143 19.9682 30 16.5V9L18 4.5L6 9Z" fill="white"/>
<path d="M18 16.5C20.0711 16.5 21.75 14.8211 21.75 12.75C21.75 10.6789 20.0711 9 18 9C15.9289 9 14.25 10.6789 14.25 12.75C14.25 14.8211 15.9289 16.5 18 16.5Z" fill="white"/>
<path d="M10.5 22.5C11.2391 23.8475 12.3231 24.9743 13.641 25.7651C14.9588 26.5558 16.4632 26.982 18 27C19.5368 26.982 21.0412 26.5558 22.359 25.7651C23.6769 24.9743 24.7609 23.8475 25.5 22.5C25.4625 19.656 20.487 18 18 18C15.4995 18 10.5375 19.656 10.5 22.5Z" fill="white"/>
</svg>
