<svg width="36" height="36" viewBox="0 0 36 36" fill="none" xmlns="http://www.w3.org/2000/svg">
<path fill-rule="evenodd" clip-rule="evenodd" d="M21 4.5V7.5H7.5V28.5H28.5V15H31.5V30C31.5 30.3978 31.342 30.7794 31.0607 31.0607C30.7794 31.342 30.3978 31.5 30 31.5H6C5.60218 31.5 5.22064 31.342 4.93934 31.0607C4.65804 30.7794 4.5 30.3978 4.5 30V6C4.5 5.60218 4.65804 5.22064 4.93934 4.93934C5.22064 4.65804 5.60218 4.5 6 4.5H21ZM29.91 5.031L30.9705 6.0915C31.1111 6.23215 31.1901 6.42288 31.1901 6.62175C31.1901 6.82062 31.1111 7.01135 30.9705 7.152L16.971 21.15L13.983 22.62C13.8986 22.6618 13.8033 22.6761 13.7103 22.6608C13.6174 22.6456 13.5316 22.6016 13.465 22.535C13.3984 22.4684 13.3544 22.3826 13.3392 22.2897C13.3239 22.1967 13.3382 22.1014 13.38 22.017L14.85 19.029L28.8495 5.0295C28.9901 4.8889 29.1809 4.80991 29.3798 4.80991C29.5786 4.80991 29.7694 4.8889 29.91 5.0295V5.031Z" fill="white"/>
</svg>
