<svg width="36" height="36" viewBox="0 0 36 36" fill="none" xmlns="http://www.w3.org/2000/svg">
<path d="M33 4.5H3V13.5H4.5V30C4.5 30.7956 4.81607 31.5587 5.37868 32.1213C5.94129 32.6839 6.70435 33 7.5 33H28.5C29.2956 33 30.0587 32.6839 30.6213 32.1213C31.1839 31.5587 31.5 30.7956 31.5 30V13.5H33V4.5ZM6 7.5H30V10.5H6V7.5ZM28.5 30H7.5V13.5H28.5V30ZM13.5 16.5H22.5C22.5 17.2956 22.1839 18.0587 21.6213 18.6213C21.0587 19.1839 20.2956 19.5 19.5 19.5H16.5C15.7044 19.5 14.9413 19.1839 14.3787 18.6213C13.8161 18.0587 13.5 17.2956 13.5 16.5Z" fill="white"/>
</svg>
