<svg width="36" height="36" viewBox="0 0 36 36" fill="none" xmlns="http://www.w3.org/2000/svg">
<path d="M9.75 7.5C8.505 7.5 7.5 8.505 7.5 9.75C7.5 10.995 8.505 12 9.75 12C10.995 12 12 10.995 12 9.75C12 8.505 10.995 7.5 9.75 7.5ZM9.75 7.5C8.505 7.5 7.5 8.505 7.5 9.75C7.5 10.995 8.505 12 9.75 12C10.995 12 12 10.995 12 9.75C12 8.505 10.995 7.5 9.75 7.5ZM32.115 17.37L18.615 3.87C18.06 3.315 17.295 3 16.5 3H6C4.35 3 3 4.35 3 6V16.5C3 17.295 3.315 18.06 3.885 18.63L4.5 19.23C5.46 18.66 6.525 18.285 7.62 18.12L6 16.5V6H16.5L30 19.5L19.5 30L17.88 28.38C17.73 29.49 17.34 30.54 16.77 31.5L17.385 32.115C17.94 32.685 18.705 33 19.5 33C20.295 33 21.06 32.685 21.615 32.115L32.115 21.615C32.685 21.06 33 20.295 33 19.5C33 18.705 32.685 17.94 32.115 17.37ZM9.75 7.5C8.505 7.5 7.5 8.505 7.5 9.75C7.5 10.995 8.505 12 9.75 12C10.995 12 12 10.995 12 9.75C12 8.505 10.995 7.5 9.75 7.5ZM12.945 21.405L7.14 27.255L5.115 25.2L3 27.33L7.125 31.5L15.045 23.52L12.945 21.405Z" fill="white"/>
</svg>
